<?xml version="1.0" encoding="UTF-8" standalone="no"?>
<!-- Created with Inkscape (http://www.inkscape.org/) -->

<svg
   xmlns:dc="http://purl.org/dc/elements/1.1/"
   xmlns:cc="http://creativecommons.org/ns#"
   xmlns:rdf="http://www.w3.org/1999/02/22-rdf-syntax-ns#"
   xmlns:svg="http://www.w3.org/2000/svg"
   xmlns="http://www.w3.org/2000/svg"
   xmlns:sodipodi="http://sodipodi.sourceforge.net/DTD/sodipodi-0.dtd"
   xmlns:inkscape="http://www.inkscape.org/namespaces/inkscape"
   width="210mm"
   height="60mm"
   viewBox="0 0 210 60"
   version="1.1"
   id="svg8"
   inkscape:version="0.92.3 (2405546, 2018-03-11)"
   sodipodi:docname="indici-edu-logo.svg">
  <defs
     id="defs2">
    <pattern
       y="0"
       x="0"
       height="6"
       width="6"
       patternUnits="userSpaceOnUse"
       id="EMFhbasepattern" />
  </defs>
  <sodipodi:namedview
     id="base"
     pagecolor="#ffffff"
     bordercolor="#666666"
     borderopacity="1.0"
     inkscape:pageopacity="0.0"
     inkscape:pageshadow="2"
     inkscape:zoom="0.35"
     inkscape:cx="47.142857"
     inkscape:cy="560"
     inkscape:document-units="mm"
     inkscape:current-layer="g64"
     showgrid="false"
     inkscape:window-width="1920"
     inkscape:window-height="1018"
     inkscape:window-x="-8"
     inkscape:window-y="-8"
     inkscape:window-maximized="1" />
  <metadata
     id="metadata5">
    <rdf:RDF>
      <cc:Work
         rdf:about="">
        <dc:format>image/svg+xml</dc:format>
        <dc:type
           rdf:resource="http://purl.org/dc/dcmitype/StillImage" />
        <dc:title></dc:title>
      </cc:Work>
    </rdf:RDF>
  </metadata>
  <g
     inkscape:label="Layer 1"
     inkscape:groupmode="layer"
     id="layer1"
     transform="translate(0,-237)">
    <g
       id="g64">
      <g
         id="g77"
         transform="translate(-0.07738065,140.84524)">
        <path
           id="path13"
           d="m 8.9103356,113.19385 c -1.1502039,0 -2.0803688,0.88972 -2.0803688,2.11933 v 15.00527 c 0,1.15964 0.9301649,2.07935 2.0803688,2.07935 1.1902114,0 2.0803684,-0.91971 2.0803684,-2.07935 v -15.00527 c 0,-1.22961 -0.890157,-2.11933 -2.0803684,-2.11933 z m 2.0803684,-5.65822 c 0,-1.14964 -0.890157,-2.06935 -2.0803684,-2.06935 -1.1502039,0 -2.0803688,0.91971 -2.0803688,2.06935 v 0.80974 c 0,1.15964 0.9301649,2.11934 2.0803688,2.11934 1.1902114,0 2.0803684,-0.9597 2.0803684,-2.11934 z m 11.832098,5.62823 c -1.500266,0 -2.920518,0.45985 -4.080724,1.18962 -0.34006,-0.72977 -1.080191,-1.18962 -1.880333,-1.18962 -1.160206,0 -2.040362,0.91971 -2.040362,2.03935 v 5.95813 c 0,0 0,0 0,0 v 9.1971 c 0,1.11965 0.880156,2.03936 2.040362,2.03936 1.000177,0 1.840326,-0.72977 2.040362,-1.64949 0.07001,-0.15994 0.07001,-0.26991 0.07001,-0.38987 v 0 -9.1971 c 0,-2.14933 1.700301,-3.88878 3.850683,-3.88878 2.200389,0 4.01071,1.73945 4.01071,3.88878 v 9.1971 c 0,1.11965 0.96017,2.03936 2.040362,2.03936 1.110197,0 2.000354,-0.91971 2.000354,-2.03936 v -9.1971 c 0,-4.34863 -3.580634,-7.99748 -8.051426,-7.99748 z m 29.475222,9.65695 c 0,0 0,0 0,0 0,-0.04 0,-0.04 0,-0.04 v -15.24519 c 0,-1.10965 -0.930163,-2.06935 -2.080368,-2.06935 -1.19021,0 -2.120376,0.9597 -2.120376,2.06935 v 7.23772 c -1.420252,-0.99969 -3.270578,-1.60949 -5.160915,-1.60949 -5.190919,0 -9.351656,4.37862 -9.351656,9.65695 0,5.18837 4.160737,9.57699 9.351656,9.57699 1.930344,0 3.780671,-0.6498 5.24093,-1.64949 0.190034,0.91972 1.000178,1.64949 2.040361,1.64949 1.150205,0 2.080368,-0.9597 2.080368,-2.07935 z m -5.741016,-3.88877 c 0.96017,0.9597 1.540272,2.34926 1.540272,3.88877 0,1.45954 -0.580102,2.84911 -1.540272,3.8088 -0.96017,0.99969 -2.190388,1.57951 -3.620643,1.57951 -1.380244,0 -2.650469,-0.57982 -3.62064,-1.57951 -0.960171,-0.95969 -1.530271,-2.34926 -1.530271,-3.8088 0,-1.53951 0.5701,-2.92907 1.530271,-3.88877 0.970171,-0.99969 2.240396,-1.5795 3.62064,-1.5795 1.430255,0 2.660473,0.57981 3.620643,1.5795 z m 13.032309,-5.73819 c -1.160206,0 -2.080369,0.88972 -2.080369,2.11933 v 15.00527 c 0,1.15964 0.920163,2.07935 2.080369,2.07935 1.190212,0 2.080368,-0.91971 2.080368,-2.07935 v -15.00527 c 0,-1.22961 -0.890156,-2.11933 -2.080368,-2.11933 z m 2.080368,-5.65822 c 0,-1.14964 -0.890156,-2.06935 -2.080368,-2.06935 -1.160206,0 -2.080369,0.91971 -2.080369,2.06935 v 0.80974 c 0,1.15964 0.920163,2.11934 2.080369,2.11934 1.190212,0 2.080368,-0.9597 2.080368,-2.11934 z m 12.262173,24.86217 c 0,0 0,0 0,0 2.31041,0 4.460793,-0.83974 6.121085,-2.03936 0.880158,-0.76976 1.040186,-1.99937 0.420076,-2.8491 -0.770138,-0.91971 -2.040363,-1.06967 -2.890512,-0.41987 -1.000178,0.72977 -2.270402,1.22961 -3.650649,1.22961 -3.120551,0 -5.701009,-2.5392 -5.701009,-5.49827 0,-2.96906 2.580458,-5.54825 5.701009,-5.54825 1.420252,0 2.650471,0.49984 3.650649,1.23961 0.890157,0.68978 2.120374,0.53983 2.890512,-0.38988 0.62011,-0.84973 0.460082,-2.14932 -0.420076,-2.8491 -1.660292,-1.2696 -3.810675,-2.10933 -6.121085,-2.10933 -5.320943,0.03 -9.781733,4.30864 -9.781733,9.65695 0,5.26834 4.46079,9.57699 9.781733,9.57699 z m 12.872283,-19.20395 c -1.160205,0 -2.080368,0.88972 -2.080368,2.11933 v 15.00527 c 0,1.15964 0.920163,2.07935 2.080368,2.07935 1.19021,0 2.080369,-0.91971 2.080369,-2.07935 v -15.00527 c 0,-1.22961 -0.890159,-2.11933 -2.080369,-2.11933 z m 2.080369,-5.65822 c 0,-1.14964 -0.890159,-2.06935 -2.080369,-2.06935 -1.160205,0 -2.080368,0.91971 -2.080368,2.06935 v 0.80974 c 0,1.15964 0.920163,2.11934 2.080368,2.11934 1.19021,0 2.080369,-0.9597 2.080369,-2.11934 z m 19.38343,24.86217 c 2.74049,0 5.01089,-0.79975 6.89122,-2.5392 0.89016,-0.80975 0.50009,-1.95939 0,-2.49922 -0.50008,-0.6198 -2.07036,-0.72977 -2.8805,0.11997 -0.97018,0.72977 -2.62047,1.06966 -4.01072,0.95969 -1.34023,-0.11996 -2.88051,-0.80974 -3.69065,-1.72945 -0.70012,-0.65979 -1.1202,-1.65948 -1.31023,-2.5392 h 12.24217 c 1.08019,0 1.89033,-0.61981 2.00035,-1.53952 0.04,-0.08 0.04,-0.26991 0.04,-0.34989 0,0 0,0 0,0 0,0 0,0 0,0 0,-0.08 0,-0.15995 0,-0.18994 -0.31006,-5.19836 -4.27076,-8.92718 -9.28165,-8.92718 -5.27093,0 -9.351652,4.37862 -9.39166,9.61697 0.04001,5.22835 4.12073,9.58698 9.39166,9.61697 z m 0,-15.58509 c 3.3506,0.26991 5.32094,2.5392 5.70101,4.07871 h -10.89193 c 0.30006,-1.5795 1.92034,-3.91876 5.19092,-4.07871 z m 31.5956,6.0081 c 0,0 0,0 0,0 0,-0.04 0,-0.04 0,-0.04 v -15.24519 c 0,-1.10965 -0.93016,-2.06935 -2.08037,-2.06935 -1.20021,0 -2.12037,0.9597 -2.12037,2.06935 v 7.23772 c -1.42025,-0.99969 -3.27058,-1.60949 -5.16092,-1.60949 -5.20092,0 -9.35165,4.37862 -9.35165,9.65695 0,5.18837 4.15073,9.57699 9.35165,9.57699 1.93035,0 3.77067,-0.6498 5.24093,-1.64949 0.19004,0.91972 1.00018,1.64949 2.04036,1.64949 1.15021,0 2.08037,-0.9597 2.08037,-2.07935 z m -5.74101,-3.88877 c 0.96017,0.9597 1.54027,2.34926 1.54027,3.88877 0,1.45954 -0.5801,2.84911 -1.54027,3.8088 -0.96017,0.99969 -2.19039,1.57951 -3.62065,1.57951 -1.38024,0 -2.65047,-0.57982 -3.62064,-1.57951 -0.96017,-0.95969 -1.54027,-2.34926 -1.54027,-3.8088 0,-1.53951 0.5801,-2.92907 1.54027,-3.88877 0.97017,-0.99969 2.2404,-1.5795 3.62064,-1.5795 1.43026,0 2.66048,0.57981 3.62065,1.5795 z m 26.66472,5.46828 v -9.19711 c 0,-1.07966 -1.01018,-2.03935 -2.08037,-2.03935 -1.1602,0 -2.01035,0.95969 -2.01035,2.03935 v 0 9.19711 c -0.03,2.18931 -1.80032,3.91876 -4.04072,3.91876 -2.19039,0 -3.9207,-1.72945 -3.9207,-3.91876 v -9.19711 c 0,-1.07966 -0.89015,-2.03935 -2.04036,-2.03935 -1.1202,0 -2.04036,0.95969 -2.04036,2.03935 v 9.19711 c 0,4.37862 3.61064,7.99748 8.00142,7.99748 4.43078,0 8.13144,-3.61886 8.13144,-7.99748 z"
           style="fill:#00bfe6;fill-opacity:1;fill-rule:nonzero;stroke:none;stroke-width:0.26458332"
           inkscape:connector-curvature="0" />
        <path
           id="path15"
           d="m 9.9705235,146.52334 c 1.2302185,0 2.3004075,-0.64979 2.9205175,-1.63948 0.11002,-0.17994 0.05001,-0.37988 -0.110019,-0.49984 -0.150027,-0.09 -0.370066,-0.06 -0.480086,0.11996 -0.480085,0.80975 -1.370242,1.30959 -2.3304125,1.30959 -1.4902642,0 -2.730484,-1.19962 -2.8004964,-2.76913 h 5.9310509 c 0.190034,0 0.350062,-0.13995 0.350062,-0.32989 v -0.04 -0.02 c -0.140025,-1.88941 -1.620287,-3.35895 -3.4806165,-3.35895 -1.9503457,0 -3.5106222,1.61949 -3.5106222,3.62886 0,1.96938 1.5602765,3.59887 3.5106222,3.59886 z m 0,-6.51794 c 1.3302355,0 2.4804395,0.98969 2.7204825,2.33926 H 7.2100342 c 0.2700479,-1.36957 1.4102499,-2.33926 2.7604893,-2.33926 z m 16.8029785,6.17805 c 0,0.17995 0.140024,0.33989 0.34006,0.33989 0.200035,0 0.350062,-0.15994 0.350062,-0.33989 v -3.93876 c 0,-1.61949 -1.310232,-2.93907 -2.940521,-2.93907 -1.100195,0 -2.080369,0.6198 -2.590459,1.53952 -0.500089,-0.91972 -1.460259,-1.53952 -2.580458,-1.53952 -0.900159,0 -1.700301,0.39987 -2.230395,1.03967 v -0.69978 c 0,-0.18994 -0.150026,-0.33989 -0.360064,-0.33989 -0.17003,0 -0.34006,0.14995 -0.34006,0.33989 v 2.47922 0.11996 3.93876 0.07 c 0.05001,0.12996 0.17003,0.24993 0.300053,0.26992 h 0.04001 0.05001 c 0.03001,0.01 0.04001,0.01 0.06001,0 0.03,0 0.07001,-0.03 0.09002,-0.05 0.100018,-0.06 0.160028,-0.15995 0.160028,-0.27992 v -3.94875 c 0,-1.21962 0.990176,-2.2393 2.230395,-2.2393 1.24022,0 2.220394,1.01968 2.220394,2.2393 v 3.94875 0.02 0.04 c 0.02,0.02 0.02,0.03 0.02,0.05 0.01,0.01 0.01,0.03 0.01,0.03 0.02,0.01 0.02,0.01 0.02,0.03 0.01,0 0.01,0.01 0.03001,0.02 l 0.04001,0.05 c 0.02,0.01 0.03001,0.03 0.05001,0.03 0.03,0.03 0.06001,0.06 0.08001,0.06 0,-0.02 0.02,0 0.03001,0 h 0.03001 0.05001 c 0.06001,0 0.120021,-0.02 0.180032,-0.05 0.07001,-0.04 0.140024,-0.1 0.17003,-0.18994 v -0.03 c 0,0 0.02,-0.01 0.02,-0.03 v -0.04 -3.93876 c 0,-1.22961 1.000178,-2.23929 2.220394,-2.23929 1.24022,0 2.220393,1.00968 2.250399,2.23929 z m 4.150735,3.00905 c 0,0.18995 0.160029,0.34989 0.350062,0.34989 0.210038,0 0.370066,-0.15994 0.370066,-0.34989 v -4.12869 c 0.62011,0.84973 1.620286,1.40955 2.750488,1.40955 1.940343,0 3.490619,-1.62948 3.490619,-3.59887 0,-1.96937 -1.550276,-3.57887 -3.490619,-3.57887 -1.130202,0 -2.130378,0.55983 -2.750488,1.39956 v -1.04967 c 0,-0.18994 -0.160028,-0.34989 -0.370066,-0.34989 -0.190033,0 -0.350062,0.15995 -0.350062,0.34989 v 3.08903 0.13995 0.14996 z m 0.720128,-6.42797 c 0.06001,-1.53951 1.280228,-2.74913 2.750488,-2.74913 1.530271,0 2.770489,1.2696 2.770489,2.85909 0,1.5995 -1.240218,2.8791 -2.770489,2.89909 -1.490266,-0.02 -2.750488,-1.29959 -2.750488,-2.89909 z m 9.14162,0.13996 v 0 c 0,1.96938 1.530271,3.61885 3.420605,3.61885 v 0 c 1.900338,0 3.420607,-1.64947 3.420607,-3.61885 v 0 c 0,-1.95939 -1.520269,-3.60887 -3.420607,-3.60887 v 0 c -1.890334,0 -3.420605,1.64948 -3.420605,3.60887 z m 0.710126,0 v 0 c 0,-1.6095 1.240218,-2.91908 2.710479,-2.91908 v 0 c 1.480264,0 2.720483,1.30958 2.720483,2.91908 v 0 c 0,1.60949 -1.240219,2.90908 -2.720483,2.90908 v 0 c -1.470261,0 -2.710479,-1.29959 -2.710479,-2.90908 z m 11.201985,3.58886 c 0.04001,0.01 0.09002,0.03 0.130024,0.03 0.12002,0 0.270047,-0.09 0.310054,-0.21992 0,-0.02 0.02,-0.03 0.02,-0.03 l 1.660295,-3.98875 1.690298,3.99874 0.01,0.02 c 0.03,0.10996 0.160028,0.19994 0.280048,0.21993 h 0.05001 0.03001 c 0.05001,0 0.110019,-0.03 0.170029,-0.08 0.06001,-0.04 0.110019,-0.1 0.140025,-0.16995 l 2.700478,-6.43797 c 0.07001,-0.16994 -0.02,-0.37988 -0.200035,-0.44986 -0.160028,-0.08 -0.380067,0.01 -0.450081,0.18994 l -2.390423,5.68821 -1.670296,-3.96875 c -0.06001,-0.12996 -0.210037,-0.21993 -0.360063,-0.21993 -0.130024,0 -0.280048,0.09 -0.330057,0.21993 l -1.670296,3.96875 -2.410429,-5.68821 c -0.06001,-0.17994 -0.280051,-0.26991 -0.45008,-0.18994 -0.170029,0.07 -0.250044,0.27992 -0.180033,0.44986 l 2.710482,6.46796 c 0.03001,0.07 0.08002,0.12996 0.150026,0.15995 0.02,0.01 0.03001,0.03 0.06001,0.03 z m 12.802269,0.03 c 1.220216,0 2.300407,-0.64979 2.920518,-1.63948 0.100018,-0.17994 0.04001,-0.37988 -0.120022,-0.49984 -0.150027,-0.09 -0.370065,-0.06 -0.470083,0.11996 -0.490088,0.80975 -1.370243,1.30959 -2.330413,1.30959 -1.490263,0 -2.730484,-1.19962 -2.810499,-2.76913 h 5.931053 c 0.200036,0 0.360064,-0.13995 0.360064,-0.32989 v -0.04 -0.02 c -0.150027,-1.88941 -1.620288,-3.35895 -3.480618,-3.35895 -1.950347,0 -3.510621,1.61949 -3.510621,3.62886 0,1.96938 1.560274,3.59887 3.510621,3.59887 z m 0,-6.51794 c 1.320234,0 2.48044,0.98969 2.710479,2.33926 h -5.470969 c 0.260048,-1.36957 1.400249,-2.33926 2.76049,-2.33926 z m 6.141088,6.15806 c 0,0.20993 0.160028,0.35988 0.370067,0.35988 0.180031,0 0.340058,-0.14995 0.340058,-0.35988 v -3.169 c 0,-0.03 0,-0.06 0.03001,-0.11997 0.100018,-0.2899 0.380066,-1.02967 0.870154,-1.67946 0.500089,-0.6498 1.150204,-1.17963 2.090369,-1.17963 0.190035,0 0.360064,-0.15995 0.360064,-0.34989 0,-0.20994 -0.170029,-0.35989 -0.360064,-0.35989 -1.380244,0 -2.340414,0.91971 -2.890512,1.76944 -0.04001,0.06 -0.07001,0.11997 -0.100018,0.17995 v -1.5895 c 0,-0.20994 -0.160027,-0.35989 -0.340058,-0.35989 -0.210039,0 -0.370067,0.14995 -0.370067,0.35989 z m 13.462386,-6.86784 h -0.930164 v -2.68915 c 0,-0.16995 -0.190034,-0.34989 -0.380069,-0.34989 -0.18003,0 -0.350062,0.17994 -0.350062,0.34989 v 2.68915 h -0.90016 c -0.360063,0 -0.360063,0.17995 -0.360063,0.34989 0,0.17994 0,0.35989 0.360063,0.35989 h 0.90016 v 5.25834 c 0,0.72977 0.540097,1.2596 1.260224,1.2596 0.180033,0 0.370065,-0.17994 0.370065,-0.35988 0,-0.16995 -0.190032,-0.36988 -0.370065,-0.36988 -0.170029,0 -0.530093,-0.16995 -0.530093,-0.52984 v -5.25834 h 0.930164 c 0.180033,0 0.360063,-0.17995 0.360063,-0.35989 0,-0.16994 -0.18003,-0.34989 -0.360063,-0.34989 z m 3.640645,3.60887 v 0 c 0,1.96938 1.530271,3.61885 3.420605,3.61885 v 0 c 1.900338,0 3.420608,-1.64947 3.420608,-3.61885 v 0 c 0,-1.95939 -1.52027,-3.60887 -3.420608,-3.60887 v 0 c -1.890334,0 -3.420605,1.64948 -3.420605,3.60887 z m 0.710126,0 v 0 c 0,-1.6095 1.230218,-2.91908 2.710479,-2.91908 v 0 c 1.480265,0 2.710482,1.30958 2.710482,2.91908 v 0 c 0,1.60949 -1.230217,2.90908 -2.710482,2.90908 v 0 c -1.480261,0 -2.710479,-1.29959 -2.710479,-2.90908 z m 16.66295,3.61885 c 1.22022,0 2.30041,-0.64979 2.92052,-1.63948 0.10002,-0.17994 0.04,-0.37988 -0.12002,-0.49984 -0.14003,-0.09 -0.37007,-0.06 -0.47008,0.11996 -0.49009,0.80975 -1.37025,1.30959 -2.33042,1.30959 -1.49026,0 -2.73048,-1.19962 -2.80049,-2.76913 h 5.93105 c 0.19003,0 0.35006,-0.13995 0.35006,-0.32989 v -0.04 -0.02 c -0.15003,-1.88941 -1.62029,-3.35895 -3.48062,-3.35895 -1.95034,0 -3.51062,1.61949 -3.51062,3.62886 0,1.96938 1.56028,3.59887 3.51062,3.59887 z m 0,-6.51794 c 1.33024,0 2.48044,0.98969 2.71048,2.33926 h -5.47097 c 0.27005,-1.36957 1.40025,-2.33926 2.76049,-2.33926 z m 12.24217,6.15806 c 0,0.19994 0.16003,0.35988 0.36007,0.35988 0.20003,0 0.36006,-0.15994 0.36006,-0.35988 v -3.23898 -0.14995 -6.22804 c 0,-0.18994 -0.16003,-0.34989 -0.36006,-0.34989 -0.20004,0 -0.36007,0.15995 -0.36007,0.34989 v 4.15869 c -0.64011,-0.84973 -1.64029,-1.40956 -2.78049,-1.40956 -1.95035,0 -3.49062,1.61949 -3.49062,3.62886 0,1.96938 1.54027,3.59886 3.49062,3.59886 1.1402,0 2.14038,-0.54982 2.78049,-1.39955 z m -2.78049,-0.36988 c -1.52027,0 -2.77049,-1.2796 -2.77049,-2.8691 0,-1.60949 1.25022,-2.90908 2.77049,-2.90908 1.49026,0 2.72048,1.23961 2.78049,2.78912 v 0.23992 c -0.06,1.52952 -1.29023,2.74914 -2.78049,2.74914 z m 7.04125,-2.2193 v 0 c 0,1.61948 1.30023,2.94906 2.93052,2.94906 v 0 c 1.65029,0 2.96052,-1.32958 2.96052,-2.94906 v -3.93876 0 c 0,-0.20994 -0.16003,-0.35989 -0.37006,-0.35989 v 0 c -0.17004,0 -0.35007,0.14995 -0.35007,0.35989 v 0 3.93876 0 c 0,1.23961 -1.00017,2.2193 -2.24039,2.23929 v 0 c -1.23022,-0.02 -2.2204,-0.99968 -2.2204,-2.23929 v -3.93876 0 c 0,-0.20994 -0.16002,-0.35989 -0.35006,-0.35989 v 0 c -0.19003,0 -0.36006,0.14995 -0.36006,0.35989 z m 12.86228,2.94906 v 0 c 0,0 0,0 0,0 v 0 c 0.86015,0 1.67029,-0.2999 2.2704,-0.76975 v 0 c 0.18003,-0.12996 0.21004,-0.34989 0.08,-0.51984 v 0 c -0.12002,-0.12996 -0.33005,-0.16994 -0.49008,-0.05 v 0 0 c -0.5201,0.38988 -1.17021,0.6298 -1.86033,0.6298 v 0 c -1.6803,0 -3.01054,-1.29959 -3.01054,-2.91908 v 0 c 0,-1.59949 1.33024,-2.90908 3.01054,-2.90908 v 0 c 0.69012,0 1.34023,0.23993 1.86033,0.6498 v 0 c 0.16003,0.11996 0.37006,0.07 0.49008,-0.06 v 0 c 0.13003,-0.15995 0.10002,-0.37988 -0.05,-0.47985 v 0 c -0.63011,-0.50984 -1.44025,-0.79975 -2.3004,-0.79975 v 0 c -2.07037,0 -3.72066,1.5895 -3.72066,3.59887 v 0 c 0,2.02935 1.65029,3.62885 3.72066,3.62885 z m 11.40202,-7.22772 c -0.20004,0 -0.36007,0.14996 -0.36007,0.34989 v 1.05967 c -0.62011,-0.84973 -1.61028,-1.40956 -2.71048,-1.40956 -1.91033,0 -3.4306,1.63949 -3.4306,3.60887 0,1.97937 1.52027,3.61885 3.4306,3.61885 1.1002,0 2.09037,-0.57981 2.71048,-1.42954 v 1.06966 c 0,0.19994 0.16003,0.35988 0.36007,0.35988 0.19003,0 0.35006,-0.15994 0.35006,-0.35988 v -6.51795 c 0,-0.19993 -0.16003,-0.34989 -0.35006,-0.34989 z m -3.07055,6.51795 c -1.48026,0 -2.72048,-1.2796 -2.72048,-2.90908 0,-1.61949 1.24022,-2.91908 2.72048,-2.91908 1.49027,0 2.71048,1.29959 2.71048,2.91908 0,1.62948 -1.22021,2.90908 -2.71048,2.90908 z m 9.12162,-6.51795 h -0.93017 v -2.68915 c 0,-0.16995 -0.19003,-0.34989 -0.38006,-0.34989 -0.18003,0 -0.36007,0.17994 -0.36007,0.34989 v 2.68915 h -0.90016 c -0.35006,0 -0.35006,0.17995 -0.35006,0.34989 0,0.17994 0,0.35989 0.35006,0.35989 h 0.90016 v 5.25834 c 0,0.72977 0.5501,1.2596 1.27023,1.2596 0.18003,0 0.37006,-0.17994 0.37006,-0.35988 0,-0.16995 -0.19003,-0.36988 -0.37006,-0.36988 -0.18003,0 -0.5301,-0.16995 -0.5301,-0.52984 v -5.25834 h 0.93017 c 0.18003,0 0.35006,-0.17995 0.35006,-0.35989 0,-0.16994 -0.17003,-0.34989 -0.35006,-0.34989 z m 6.60117,7.22772 c 1.22022,0 2.30041,-0.64979 2.92052,-1.63948 0.10001,-0.17994 0.05,-0.37988 -0.12002,-0.49984 -0.14003,-0.09 -0.37007,-0.06 -0.47009,0.11996 -0.49008,0.80975 -1.37024,1.30959 -2.33041,1.30959 -1.49027,0 -2.73048,-1.19962 -2.8005,-2.76913 h 5.93106 c 0.19003,0 0.35005,-0.13995 0.35005,-0.32989 v -0.04 -0.02 c -0.15002,-1.88941 -1.62028,-3.35895 -3.48061,-3.35895 -1.95035,0 -3.51062,1.61949 -3.51062,3.62886 0,1.96938 1.56027,3.59887 3.51062,3.59886 z m 0,-6.51794 c 1.33023,0 2.48044,0.98969 2.71048,2.33926 h -5.47097 c 0.27005,-1.36957 1.40025,-2.33926 2.76049,-2.33926 z"
           style="fill:#00bfe6;fill-opacity:1;fill-rule:nonzero;stroke:none;stroke-width:0.26458332"
           inkscape:connector-curvature="0" />
        <path
           id="path17"
           d="m 180.47074,125.57994 c 0,0.78975 0.60011,1.40956 1.44026,1.40956 h 10.2218 c 0.79015,0 1.42026,-0.61981 1.42026,-1.40956 0,-0.80974 -0.63011,-1.40955 -1.42026,-1.40955 H 181.911 c -0.84015,0 -1.44026,0.59981 -1.44026,1.40955 z m -3.85068,-1.40955 c -0.79014,0 -1.41025,0.59981 -1.41025,1.40955 0,0.78975 0.62011,1.40956 1.41025,1.40956 h 0.55009 c 0.79015,0 1.44026,-0.61981 1.44026,-1.40956 0,-0.80974 -0.65011,-1.40955 -1.44026,-1.40955 z"
           style="fill:#c7e8fa;fill-opacity:1;fill-rule:nonzero;stroke:none;stroke-width:0.26458332"
           inkscape:connector-curvature="0" />
        <path
           id="path19"
           d="m 176.62006,124.35033 c -0.70013,0 -1.23022,0.52983 -1.23022,1.22961 0,0.67979 0.5501,1.22962 1.23022,1.22962 h 0.55009 c 0.69013,0 1.26023,-0.54983 1.26023,-1.22962 0,-0.68978 -0.5501,-1.22961 -1.26023,-1.22961 z m 0.55009,2.82911 h -0.55009 c -0.88016,0 -1.60029,-0.71977 -1.60029,-1.5995 0,-0.89971 0.70013,-1.59949 1.60029,-1.59949 h 0.55009 c 0.91017,0 1.62029,0.69978 1.62029,1.59949 0,0.87973 -0.72013,1.5995 -1.62029,1.5995 z m 4.74085,-2.82911 c -0.73014,0 -1.26023,0.51984 -1.26023,1.22961 0,0.69978 0.5501,1.22962 1.26023,1.22962 h 10.2218 c 0.68013,0 1.23022,-0.54983 1.23022,-1.22962 0,-0.69978 -0.53009,-1.22961 -1.23022,-1.22961 z m 10.2218,2.82911 H 181.911 c -0.92017,0 -1.62029,-0.68978 -1.62029,-1.5995 0,-0.9297 0.68012,-1.59949 1.62029,-1.59949 h 10.2218 c 0.90016,0 1.60029,0.69978 1.60029,1.59949 0,0.87973 -0.72013,1.5995 -1.60029,1.5995 z"
           style="fill:#c7e8fa;fill-opacity:1;fill-rule:nonzero;stroke:none;stroke-width:0.26458332"
           inkscape:connector-curvature="0" />
        <path
           id="path21"
           d="m 180.47074,112.51406 c 0,0.77975 0.60011,1.40956 1.44026,1.40956 h 10.2218 c 0.79015,0 1.42026,-0.62981 1.42026,-1.40956 0,-0.80975 -0.63011,-1.41955 -1.42026,-1.41955 H 181.911 c -0.84015,0 -1.44026,0.6098 -1.44026,1.41955 z m -3.85068,-1.41955 c -0.79014,0 -1.41025,0.6098 -1.41025,1.41955 0,0.77975 0.62011,1.40956 1.41025,1.40956 h 0.55009 c 0.79015,0 1.44026,-0.62981 1.44026,-1.40956 0,-0.80975 -0.65011,-1.41955 -1.44026,-1.41955 z"
           style="fill:#c7e8fa;fill-opacity:1;fill-rule:nonzero;stroke:none;stroke-width:0.26458332"
           inkscape:connector-curvature="0" />
        <path
           id="path23"
           d="m 176.62006,111.28445 c -0.70013,0 -1.23022,0.52983 -1.23022,1.22961 0,0.67979 0.5501,1.22961 1.23022,1.22961 h 0.55009 c 0.69013,0 1.26023,-0.54982 1.26023,-1.22961 0,-0.68978 -0.5501,-1.22961 -1.26023,-1.22961 z m 0.55009,2.81911 h -0.55009 c -0.88016,0 -1.60029,-0.70978 -1.60029,-1.5895 0,-0.89972 0.70013,-1.5995 1.60029,-1.5995 h 0.55009 c 0.91017,0 1.62029,0.69978 1.62029,1.5995 0,0.87972 -0.72013,1.5895 -1.62029,1.5895 z m 4.74085,-2.81911 c -0.73014,0 -1.26023,0.50984 -1.26023,1.22961 0,0.69978 0.5501,1.22961 1.26023,1.22961 h 10.2218 c 0.68013,0 1.23022,-0.54982 1.23022,-1.22961 0,-0.69978 -0.53009,-1.22961 -1.23022,-1.22961 z m 10.2218,2.81911 H 181.911 c -0.92017,0 -1.62029,-0.67979 -1.62029,-1.5895 0,-0.92971 0.68012,-1.5995 1.62029,-1.5995 h 10.2218 c 0.90016,0 1.60029,0.69978 1.60029,1.5995 0,0.87972 -0.72013,1.5895 -1.60029,1.5895 z"
           style="fill:#c7e8fa;fill-opacity:1;fill-rule:nonzero;stroke:none;stroke-width:0.26458332"
           inkscape:connector-curvature="0" />
        <path
           id="path25"
           d="m 177.00013,105.49627 c -0.5101,0 -5.0209,0.17994 -5.0209,5.00842 v 16.44482 c 0.01,0.50984 0.19004,5.00842 5.0209,5.00842 h 14.75261 c 0.52009,0 5.02089,-0.18993 5.02089,-5.00842 v -16.44482 c 0,-0.49984 -0.19004,-5.00842 -5.02089,-5.00842 z m 14.75261,29.1908 h -14.75261 c -6.13109,0 -7.74138,-5.0584 -7.74138,-7.73756 v -16.44482 c 0,-6.11807 5.0609,-7.73756 7.74138,-7.73756 h 14.75261 c 6.13109,0 7.75137,5.0684 7.75137,7.73756 v 16.44482 c 0,6.11807 -5.0709,7.73756 -7.75137,7.73756 z"
           style="fill:#00bfe6;fill-opacity:1;fill-rule:nonzero;stroke:none;stroke-width:0.26458332"
           inkscape:connector-curvature="0" />
        <path
           id="path27"
           d="m 188.28212,119.02201 c 0,-0.78975 -0.6001,-1.41955 -1.44025,-1.41955 h -10.22181 c -0.79014,0 -1.41025,0.6298 -1.41025,1.41955 0,0.80974 0.62011,1.40956 1.41025,1.40956 h 10.22181 c 0.84015,0 1.44025,-0.59982 1.44025,-1.40956 z m 3.85068,1.40956 c 0.79015,0 1.42026,-0.59982 1.42026,-1.40956 0,-0.78975 -0.63011,-1.41955 -1.42026,-1.41955 h -0.55009 c -0.79014,0 -1.44026,0.6298 -1.44026,1.41955 0,0.80974 0.65012,1.40956 1.44026,1.40956 z"
           style="fill:#82d4f5;fill-opacity:1;fill-rule:nonzero;stroke:none;stroke-width:0.26458332"
           inkscape:connector-curvature="0" />
        <path
           id="path29"
           d="m 176.62006,117.74241 c -0.72013,0 -1.28023,0.55983 -1.28023,1.2796 0,0.72977 0.5501,1.2796 1.28023,1.2796 h 10.22181 c 0.76013,0 1.31023,-0.53983 1.31023,-1.2796 0,-0.72977 -0.5601,-1.2796 -1.31023,-1.2796 z m 10.22181,2.81911 h -10.22181 c -0.87016,0 -1.54028,-0.66978 -1.54028,-1.53951 0,-0.84973 0.69013,-1.54951 1.54028,-1.54951 h 10.22181 c 0.89015,0 1.57028,0.66979 1.57028,1.54951 0,0.88972 -0.66012,1.53951 -1.57028,1.53951 z m 4.74084,-2.81911 c -0.72013,0 -1.31023,0.56982 -1.31023,1.2796 0,0.71977 0.5801,1.2796 1.31023,1.2796 h 0.55009 c 0.73014,0 1.29023,-0.54983 1.29023,-1.2796 0,-0.70978 -0.5801,-1.2796 -1.29023,-1.2796 z m 0.55009,2.81911 h -0.55009 c -0.88016,0 -1.57028,-0.66978 -1.57028,-1.53951 0,-0.84973 0.70012,-1.54951 1.57028,-1.54951 h 0.55009 c 0.85016,0 1.55028,0.69978 1.55028,1.54951 0,0.86973 -0.68012,1.53951 -1.55028,1.53951 z"
           style="fill:#82d4f5;fill-opacity:1;fill-rule:nonzero;stroke:none;stroke-width:0.26458332"
           inkscape:connector-curvature="0" />
        <path
           id="path31"
           d="m 201.08439,103.13701 h -0.52009 v 1.75945 c 0,0.1 -0.08,0.17994 -0.18003,0.17994 -0.10002,0 -0.18003,-0.08 -0.18003,-0.17994 v -1.75945 h -0.5201 c -0.10001,0 -0.18003,-0.09 -0.18003,-0.18994 0,-0.1 0.08,-0.17994 0.18003,-0.17994 h 1.40025 c 0.10002,0 0.19004,0.08 0.19004,0.17994 0,0.1 -0.09,0.18994 -0.19004,0.18994 z"
           style="fill:#00bfe6;fill-opacity:1;fill-rule:nonzero;stroke:none;stroke-width:0.26458332"
           inkscape:connector-curvature="0" />
        <path
           id="path33"
           d="m 203.69486,102.94707 v 1.94939 c 0,0.1 -0.08,0.17994 -0.18004,0.17994 -0.10002,0 -0.18003,-0.08 -0.18003,-0.17994 v -1.38956 l -0.48008,0.65979 c -0.03,0.05 -0.08,0.07 -0.14003,0.07 h -0.01 v 0 c -0.06,0 -0.12002,-0.02 -0.15003,-0.07 l -0.47008,-0.65979 v 1.38956 c 0,0.1 -0.09,0.17994 -0.19003,0.17994 -0.10002,0 -0.18003,-0.08 -0.18003,-0.17994 v -1.94939 c 0,-0.1 0.08,-0.17994 0.18003,-0.17994 h 0.01 c 0.05,0 0.11002,0.03 0.15002,0.08 l 0.65012,0.90971 0.66012,-0.90971 c 0.04,-0.05 0.09,-0.08 0.15002,-0.08 v 0 c 0.10002,0 0.18004,0.08 0.18004,0.17994 z"
           style="fill:#00bfe6;fill-opacity:1;fill-rule:nonzero;stroke:none;stroke-width:0.26458332"
           inkscape:connector-curvature="0" />
      </g>
    </g>
  </g>
</svg>
