<?xml version="1.0" encoding="utf-8"?>
<!-- Generator: Adobe Illustrator 23.0.1, SVG Export Plug-In . SVG Version: 6.00 Build 0)  -->
<svg version="1.1" id="Layer_1" xmlns="http://www.w3.org/2000/svg" xmlns:xlink="http://www.w3.org/1999/xlink" x="0px" y="0px"
	 viewBox="0 0 793 226" style="enable-background:new 0 0 793 226;" xml:space="preserve">
<style type="text/css">
	.st0{fill:#FFFFFF;}
</style>
<g>
	<g>
		<g>
			<path class="st0" d="M749.5,86.5c0,10.1,0.1,20.2-0.1,30.3c0,3.1-0.3,6.3-1.2,9.2c-3.2,11.5-11.5,17.3-22.8,19.5
				c-1.9,0.4-3.9,0.5-5.8,0.5c-18,0-35.9,0-53.9,0c-5.3,0-10.4-0.7-15.1-3.3c-7.9-4.2-12.1-11.1-13.9-19.7c-0.5-2.2-0.6-4.4-0.7-6.7
				c0-20.2-0.1-40.4,0-60.6c0-3.5,0.4-7.1,1.4-10.4c3.2-10.4,10.8-16,21.1-18.3c2.8-0.6,5.8-0.9,8.6-0.9c17.7-0.1,35.3-0.1,53,0
				c4.6,0,9.2,0.8,13.4,2.8c8.6,4,13.2,11.2,15.1,20.3c0.5,2.2,0.6,4.5,0.7,6.8C749.5,66.2,749.5,76.4,749.5,86.5z M646.3,85.7
				c0,10,0,20,0,30c0,1.3,0.1,2.6,0.2,3.8c0.9,8.3,5.9,14.1,13.6,15.7c1.7,0.4,3.5,0.5,5.3,0.5c18.1,0,36.2,0,54.3,0
				c1.4,0,2.8-0.1,4.1-0.3c7.3-1.4,12.7-5,14.6-12.6c0.5-2.1,0.7-4.3,0.7-6.5c0.1-20,0-40,0-60c0-1.3-0.1-2.7-0.3-4
				c-1.3-7.3-4.8-12.9-12.3-15c-2.1-0.6-4.4-0.8-6.7-0.8c-18-0.1-36,0-54,0c-1.4,0-2.8,0.1-4.1,0.3c-7.3,1.3-12.8,5-14.8,12.6
				c-0.5,2-0.7,4.2-0.7,6.4C646.3,65.8,646.3,75.7,646.3,85.7z"/>
		</g>
		<g>
			<path class="st0" d="M510.2,71.3c0-0.8,0-1.3,0-1.9c0-8.2,0-16.4,0-24.6c0-4.8,3.3-8.3,7.9-8.3c4.5,0,7.8,3.5,7.8,8.2
				c0,28.1,0,56.1,0,84.2c0,4.4-2.5,7.7-6.3,8.4c-4,0.7-7.3-1.3-9-5.5c0-0.1-0.1-0.2-0.2-0.4c-9.1,5.8-19,7.7-29.5,4.5
				c-7.7-2.3-13.9-7-18.5-13.6c-9.7-13.8-8.5-32.6,2.6-45.2C475.8,64.8,494.4,61,510.2,71.3z M490.9,122c2.4-0.6,4.8-0.9,7-1.8
				c12.8-5.4,16.4-22.6,6.9-32.8c-8.2-8.9-21.1-8.5-28.8,0.9c-6,7.3-6.1,18.6-0.2,25.9C479.8,119,484.7,121.6,490.9,122z"/>
		</g>
		<g>
			<path class="st0" d="M182.2,131.4c-17.2,11.1-36.1,5.5-46.2-6.6c-10.7-12.9-11.3-31.7-1.2-45.2c5.5-7.4,12.8-12.1,21.9-13.7
				c9-1.6,17.4,0.3,25.3,5.5c0-0.8,0-1.4,0-1.9c0-8.4,0-16.8,0-25.2c0-3.9,3-7.2,6.8-7.6c4-0.5,7.5,1.8,8.6,5.7
				c0.2,0.7,0.3,1.4,0.3,2.1c0,28.4,0,56.7,0,85.1c0,3.8-2.3,6.8-5.8,7.7c-3.3,0.9-6.9-0.5-8.6-3.4
				C182.9,133,182.6,132.3,182.2,131.4z M143,101.6c0.6,2.5,0.9,5.1,1.8,7.5c4.7,12.4,19.7,16.6,29.7,8.3c8.1-6.8,10-18.7,4.1-27.5
				c-4.2-6.2-10.1-9.6-17.7-8.8C150.6,82.2,143.4,90.8,143,101.6z"/>
		</g>
		<g>
			<path class="st0" d="M388.8,106.6c1.5,6.9,5.4,11.5,11.6,14.1c6.3,2.7,12.6,2.6,18.9,0c1.4-0.6,2.7-1.5,3.9-2.4
				c4.4-3.4,10.6-1.7,11.9,3.4c0.7,2.5,0,4.6-1.9,6.4c-7.5,6.8-16.4,9.6-26.3,9.3c-17.9-0.6-32.5-14.3-34.3-32
				c-1.8-18.5,9.7-35.2,27.5-39.2c18.9-4.2,37.8,7.1,41.7,27.6c0.4,1.9,0.6,3.9,0.6,5.9c0,3.4-2.3,6-5.7,6.6c-1,0.2-2,0.2-3,0.2
				c-14.2,0-28.5,0-42.7,0C390.3,106.6,389.7,106.6,388.8,106.6z M428.9,94.2c-2.5-8.7-13.6-15.9-22.8-15.1
				c-8.7,0.8-17.1,7.8-17.8,15.1C401.7,94.2,415.2,94.2,428.9,94.2z"/>
		</g>
		<g>
			<path class="st0" d="M72,69.7c3.8-2.2,7.7-3.6,12-4.2c15.7-2.1,31.3,10.1,33.2,25.8c0.2,1.6,0.3,3.3,0.3,4.9
				c0,11.1,0,22.2,0,33.4c0,5-4.1,8.6-8.8,7.7c-3.7-0.6-6.3-3.9-6.3-7.9c0-8.9,0-17.8,0-26.6c0-2.4,0-4.9,0-7.3
				c-0.1-8.2-6.6-14.7-14.9-14.7c-8.1,0-14.5,6.4-14.5,14.6c-0.1,11.4,0,22.8,0,34.1c0,5.4-5.4,9.3-10.4,7.5c-2.8-1-4.5-3.1-5-6
				c-0.1-0.5-0.1-1-0.1-1.5c0-18.7,0-37.4,0-56.2c0-3.8,2.1-6.7,5.4-7.6c3.4-1,6.8,0.3,8.9,3.4C71.7,69.2,71.8,69.4,72,69.7z"/>
		</g>
		<g>
			<path class="st0" d="M543.9,91.2c0-5.9,0-11.7,0-17.6c0-4.7,3.2-8.2,7.6-8.3c4.4,0,7.7,3.5,7.7,8.3c0,11.2,0,22.3,0,33.5
				c0,7.9,5.5,14.2,13,14.9c8.2,0.8,15-4.2,16.6-12.1c0.2-1.1,0.3-2.3,0.3-3.5c0-11,0-21.9,0-32.9c0-4.2,2.3-7.2,5.9-8
				c4.4-1,9.3,2.6,9.3,7.2c0.1,12.1,0.2,24.3-0.1,36.4c-0.3,13.5-11.6,25.8-25.1,27.9c-18.8,3-35.1-11-35.2-30
				C543.9,101.7,543.9,96.4,543.9,91.2z"/>
		</g>
		<g>
			<path class="st0" d="M278.9,137.4c-17.9,0.1-33.5-13.1-36.3-30.5c-2.8-18,8.8-35.6,26.7-40.3c11.7-3.1,22.3-0.7,32,6.3
				c3.6,2.6,4.5,7.5,2.1,10.8c-2.5,3.5-7.2,4.1-11,1.5c-8.8-6.1-19.1-6.1-27,0.2c-7.1,5.7-9.8,14.8-6.7,22.9
				c3.2,8.4,11.7,14,20.9,13.7c4.8-0.2,9.1-1.8,12.9-4.6c2-1.4,4.2-1.9,6.5-1.2c3,0.9,5.1,2.7,5.6,5.8c0.5,3.3-0.6,5.9-3.3,7.9
				C295.1,134.7,286.7,137.4,278.9,137.4z"/>
		</g>
		<g>
			<path class="st0" d="M334.9,101.4c0,9.4,0,18.9,0,28.3c0,3.3-2,6.1-5,7.2c-3.1,1.1-6.5,0.3-8.7-2.1c-1.3-1.4-1.9-3.1-1.9-5
				c0-18.9,0-37.8,0-56.6c0-4.4,3.5-7.7,7.8-7.7c4.4,0,7.7,3.3,7.7,7.8C334.9,82.6,334.9,92,334.9,101.4z"/>
		</g>
		<g>
			<path class="st0" d="M217.3,101.5c0-9.3,0-18.7,0-28c0-5.3,4.2-8.8,9.4-7.9c3.5,0.6,6.1,3.6,6.2,7.3c0.1,2.5,0,5.1,0,7.7
				c0,16.3,0,32.5,0,48.8c0,5.8-5.2,9.5-10.5,7.5c-3.1-1.1-5.1-4-5.1-7.5C217.3,120.1,217.3,110.8,217.3,101.5z"/>
		</g>
		<g>
			<path class="st0" d="M27.4,101.4c0-9.3,0-18.6,0-27.9c0-5.4,4.1-8.8,9.3-7.9c3.2,0.5,5.7,3,6.1,6.2c0.1,0.7,0.1,1.3,0.1,2
				c0,18.5,0,36.9,0,55.4c0,5-3.4,8.4-8,8.2c-4.3-0.2-7.5-3.4-7.5-7.9c0-7.8,0-15.6,0-23.4C27.4,104.5,27.4,103,27.4,101.4z"/>
		</g>
		<g>
			<path class="st0" d="M233,45.9c-0.1,1.2-0.1,2.5-0.5,3.6c-1,3.7-4.5,6.1-8.2,5.7c-3.8-0.4-6.8-3.5-7-7.3c-0.1-1.4-0.1-2.8,0-4.1
				c0.2-4.1,3.6-7.3,7.8-7.3c4.2,0,7.5,3.1,7.8,7.2c0,0.7,0,1.4,0,2.1C232.9,45.8,233,45.9,233,45.9z"/>
		</g>
		<g>
			<path class="st0" d="M334.9,45.8c-0.1,1,0,2-0.2,3c-0.8,3.9-4.1,6.4-7.9,6.3c-3.8-0.1-7.1-3.1-7.5-7c-0.2-1.9-0.2-3.8,0.2-5.6
				c0.7-4,4.3-6.4,8.5-6.1c3.9,0.3,6.8,3.5,6.9,7.5C334.9,44.6,334.9,45.2,334.9,45.8C334.9,45.8,334.9,45.8,334.9,45.8z"/>
		</g>
		<g>
			<path class="st0" d="M27.3,45.8c0.1-1.2,0.1-2.4,0.3-3.5c0.9-3.8,4.3-6.1,8.4-5.8c3.7,0.3,6.6,3.2,6.9,7c0.1,1.6,0.1,3.2,0,4.7
				c-0.4,4-3.7,7-7.7,7c-4,0-7.4-3.2-7.7-7.3c0-0.7,0-1.4,0-2.1C27.4,45.8,27.3,45.8,27.3,45.8z"/>
		</g>
		<g>
			<path class="st0" d="M758.4,25.8c1.2,1.6,2.1,2.8,3.1,4.2c1-1.3,1.9-2.6,3.1-4.2c0.3,0.8,0.6,1.3,0.6,1.7c0.1,2,0.1,4.1,0,6.1
				c0,0.4-0.5,0.8-0.7,1.3c-0.2-0.4-0.6-0.9-0.6-1.3c-0.1-1.3,0-2.6,0-4.3c-0.6,0.8-0.9,1.2-1.3,1.6c-1,1.3-1.2,1.3-2.2,0
				c-0.3-0.4-0.6-0.8-1.2-1.6c0,1.8,0.1,3.1,0,4.5c0,0.4-0.5,0.8-0.7,1.2c-0.2-0.4-0.6-0.8-0.6-1.2c-0.1-2-0.1-4.1,0-6.1
				C757.8,27.1,758.1,26.6,758.4,25.8z"/>
		</g>
		<g>
			<path class="st0" d="M753.5,27.7c0,2.2,0,4.1,0,6c0,0.4-0.4,0.8-0.6,1.2c-0.2-0.4-0.7-0.8-0.7-1.3c-0.1-1.9,0-3.8,0-6
				c-0.7,0-1.2,0.1-1.8,0c-0.3-0.1-0.6-0.4-0.8-0.7c0.3-0.3,0.5-0.7,0.8-0.8c1.6-0.1,3.3-0.1,4.9,0c0.3,0,0.6,0.5,0.9,0.8
				c-0.3,0.2-0.6,0.5-0.9,0.6C754.7,27.8,754.2,27.7,753.5,27.7z"/>
		</g>
		<g>
			<path class="st0" d="M702.6,68.8c-6.3,0-12.7,0-19,0c-4.4,0-7.1-3.8-5.9-7.8c0.7-2.2,2.3-3.6,4.6-4c0.6-0.1,1.3-0.1,2-0.1
				c12.3,0,24.6,0,36.9,0c3.5,0,5.9,1.7,6.5,4.6c0.8,3.9-1.9,7.3-6.1,7.3C715.3,68.9,709,68.8,702.6,68.8z"/>
		</g>
		<g>
			<path class="st0" d="M702.6,117.8c-6.3,0-12.7,0-19,0c-4.4,0-7.1-3.8-5.9-7.8c0.7-2.3,2.3-3.6,4.6-4c0.6-0.1,1.2-0.1,1.8-0.1
				c12.4,0,24.8,0,37.2,0c3.4,0,5.7,1.8,6.4,4.6c0.8,3.9-1.9,7.3-5.9,7.3C715.4,117.9,709,117.8,702.6,117.8z"/>
		</g>
		<g>
			<path class="st0" d="M682.8,81.5c6.4,0,12.8,0,19.1,0c3.7,0,6.2,2.7,5.9,6.3c-0.2,2.7-2,4.7-4.6,5.1c-0.6,0.1-1.2,0.1-1.8,0.1
				c-12.3,0-24.7,0-37,0c-3.3,0-5.5-1.5-6.2-4.2c-1.1-3.8,1.6-7.4,5.7-7.4C670.2,81.5,676.5,81.5,682.8,81.5z"/>
		</g>
		<g>
			<path class="st0" d="M664.8,68.8c-5.4,0.4-8.1-4.3-6.6-8.2c1.4-3.7,5.2-4.5,9.7-3.4c3,0.8,4.7,4.2,3.8,7.2
				C670.8,67.4,668.5,68.8,664.8,68.8z"/>
		</g>
		<g>
			<path class="st0" d="M664.6,117.8c-5.2,0.4-8-4.3-6.5-8.2c1.5-3.7,5.3-4.5,9.7-3.4c3.1,0.8,4.7,4.1,3.8,7.2
				C670.8,116.4,668.5,117.8,664.6,117.8z"/>
		</g>
		<g>
			<path class="st0" d="M720.8,93.1c-3.5,0-5.8-1.3-6.5-4.1c-0.3-1.1-0.3-2.4,0-3.4c1.4-4.1,5-4.7,9.3-3.8c3.1,0.7,4.7,4,3.9,7.1
				C726.7,91.7,724.4,93.1,720.8,93.1z"/>
		</g>
	</g>
	<g>
		<path class="st0" d="M56.2,178.5H33.2c0.4,2,1.5,3.5,3.1,4.7c1.7,1.1,3.8,1.7,6.3,1.7c3.2,0,5.9-1,7.9-2.9l3.7,3.8
			c-1.3,1.4-3,2.5-5,3.2c-2,0.7-4.3,1.1-6.8,1.1c-3.2,0-6-0.6-8.5-1.7c-2.4-1.2-4.3-2.8-5.7-4.9c-1.3-2.1-2-4.4-2-7
			c0-2.6,0.6-4.9,1.9-7c1.3-2.1,3.1-3.7,5.4-4.9c2.3-1.2,4.9-1.7,7.8-1.7c2.8,0,5.4,0.6,7.6,1.7c2.2,1.1,4,2.8,5.3,4.8
			c1.3,2.1,1.9,4.5,1.9,7.2C56.3,177.1,56.2,177.7,56.2,178.5z M35.9,169.7c-1.5,1.2-2.4,2.7-2.8,4.7h16.6c-0.3-1.9-1.2-3.5-2.7-4.7
			c-1.5-1.2-3.4-1.8-5.6-1.8C39.3,167.9,37.5,168.5,35.9,169.7z"/>
		<path class="st0" d="M108.5,165.9c2.2,1.9,3.2,4.9,3.2,8.7v15.2h-6.8v-14.4c0-2.3-0.6-4.1-1.7-5.3c-1.1-1.2-2.8-1.8-4.9-1.8
			c-2.3,0-4.1,0.7-5.5,2.1c-1.4,1.4-2.1,3.3-2.1,5.9v13.5h-6.8v-14.4c0-2.3-0.6-4.1-1.7-5.3c-1.1-1.2-2.8-1.8-4.9-1.8
			c-2.3,0-4.2,0.7-5.6,2c-1.4,1.4-2.1,3.3-2.1,5.9v13.5h-6.8v-26.6h6.5v3.4c1.1-1.2,2.5-2.1,4.1-2.7c1.6-0.6,3.5-0.9,5.5-0.9
			c2.2,0,4.1,0.4,5.8,1.1c1.7,0.7,3,1.9,4,3.3c1.2-1.4,2.8-2.5,4.7-3.3c1.9-0.8,4-1.2,6.3-1.2C103.4,163,106.4,163.9,108.5,165.9z"
			/>
		<path class="st0" d="M144.3,164.7c2.2,1.1,4,2.7,5.3,4.8c1.3,2.1,1.9,4.4,1.9,7.1s-0.6,5.1-1.9,7.1c-1.3,2.1-3,3.7-5.3,4.8
			c-2.2,1.1-4.8,1.7-7.6,1.7c-3.9,0-7.1-1.2-9.4-3.6v12.9h-6.8v-36.2h6.5v3.5c1.1-1.3,2.5-2.2,4.2-2.8c1.7-0.6,3.5-0.9,5.5-0.9
			C139.6,163,142.1,163.5,144.3,164.7z M142.2,182.6c1.6-1.5,2.4-3.5,2.4-6s-0.8-4.5-2.4-6c-1.6-1.5-3.7-2.3-6.2-2.3
			c-1.6,0-3.1,0.3-4.4,1c-1.3,0.7-2.4,1.7-3.1,2.9c-0.8,1.3-1.1,2.7-1.1,4.4c0,1.7,0.4,3.1,1.1,4.4c0.8,1.3,1.8,2.2,3.1,2.9
			c1.3,0.7,2.8,1,4.4,1C138.5,184.9,140.5,184.1,142.2,182.6z"/>
		<path class="st0" d="M163.2,188.4c-2.4-1.2-4.2-2.8-5.6-4.9c-1.3-2.1-2-4.4-2-7c0-2.6,0.7-5,2-7c1.3-2.1,3.2-3.7,5.6-4.8
			c2.4-1.2,5-1.7,8-1.7c3,0,5.7,0.6,8,1.7c2.4,1.2,4.2,2.8,5.6,4.8c1.3,2.1,2,4.4,2,7c0,2.6-0.7,5-2,7c-1.3,2.1-3.2,3.7-5.6,4.9
			c-2.4,1.2-5.1,1.7-8,1.7C168.2,190.2,165.6,189.6,163.2,188.4z M177.4,182.6c1.6-1.5,2.5-3.5,2.5-6s-0.8-4.5-2.5-6
			c-1.6-1.5-3.7-2.3-6.2-2.3c-2.5,0-4.6,0.8-6.2,2.3c-1.6,1.5-2.4,3.5-2.4,6s0.8,4.5,2.4,6c1.6,1.5,3.7,2.3,6.2,2.3
			C173.7,184.9,175.8,184.1,177.4,182.6z"/>
		<path class="st0" d="M238.2,163.3l-10.8,26.6h-6.6l-7.6-18.3l-7.7,18.3H199l-10.7-26.6h6.5l7.7,19.6l8-19.6h5.7l7.9,19.7l7.9-19.7
			H238.2z"/>
		<path class="st0" d="M269.4,178.5h-22.9c0.4,2,1.5,3.5,3.1,4.7c1.7,1.1,3.8,1.7,6.3,1.7c3.2,0,5.9-1,7.9-2.9l3.7,3.8
			c-1.3,1.4-3,2.5-5,3.2c-2,0.7-4.3,1.1-6.8,1.1c-3.2,0-6-0.6-8.5-1.7c-2.4-1.2-4.3-2.8-5.7-4.9c-1.3-2.1-2-4.4-2-7
			c0-2.6,0.6-4.9,1.9-7c1.3-2.1,3.1-3.7,5.4-4.9c2.3-1.2,4.9-1.7,7.8-1.7c2.8,0,5.4,0.6,7.6,1.7c2.2,1.1,4,2.8,5.3,4.8
			c1.3,2.1,1.9,4.5,1.9,7.2C269.5,177.1,269.5,177.7,269.4,178.5z M249.2,169.7c-1.5,1.2-2.4,2.7-2.8,4.7H263
			c-0.3-1.9-1.2-3.5-2.7-4.7c-1.5-1.2-3.4-1.8-5.6-1.8C252.6,167.9,250.7,168.5,249.2,169.7z"/>
		<path class="st0" d="M293,163v5.9c-0.6-0.1-1.1-0.1-1.6-0.1c-2.7,0-4.7,0.7-6.2,2.1c-1.5,1.4-2.2,3.4-2.2,6.1v12.9h-6.8v-26.6h6.5
			v3.9C284.6,164.4,288.1,163,293,163z"/>
		<path class="st0" d="M331.8,188.4c-0.8,0.6-1.8,1-2.9,1.3c-1.1,0.3-2.4,0.4-3.6,0.4c-3.2,0-5.7-0.8-7.4-2.3
			c-1.8-1.5-2.6-3.7-2.6-6.7v-12.8h-4.8v-5h4.8v-6.1h6.8v6.1h7.8v5H322v12.6c0,1.3,0.3,2.3,1,3c0.7,0.7,1.7,1,3,1
			c1.5,0,2.8-0.4,3.8-1.1L331.8,188.4z"/>
		<path class="st0" d="M341.6,188.4c-2.4-1.2-4.2-2.8-5.6-4.9c-1.3-2.1-2-4.4-2-7c0-2.6,0.7-5,2-7c1.3-2.1,3.2-3.7,5.6-4.8
			c2.4-1.2,5-1.7,8-1.7c3,0,5.7,0.6,8,1.7c2.4,1.2,4.2,2.8,5.6,4.8c1.3,2.1,2,4.4,2,7c0,2.6-0.7,5-2,7c-1.3,2.1-3.2,3.7-5.6,4.9
			c-2.4,1.2-5.1,1.7-8,1.7C346.6,190.2,344,189.6,341.6,188.4z M355.8,182.6c1.6-1.5,2.5-3.5,2.5-6s-0.8-4.5-2.5-6
			c-1.6-1.5-3.7-2.3-6.2-2.3c-2.5,0-4.6,0.8-6.2,2.3c-1.6,1.5-2.4,3.5-2.4,6s0.8,4.5,2.4,6c1.6,1.5,3.7,2.3,6.2,2.3
			C352.1,184.9,354.2,184.1,355.8,182.6z"/>
		<path class="st0" d="M414.2,178.5h-22.9c0.4,2,1.5,3.5,3.1,4.7c1.7,1.1,3.8,1.7,6.3,1.7c3.2,0,5.9-1,7.9-2.9l3.7,3.8
			c-1.3,1.4-3,2.5-5,3.2c-2,0.7-4.3,1.1-6.8,1.1c-3.2,0-6-0.6-8.5-1.7c-2.4-1.2-4.3-2.8-5.7-4.9c-1.3-2.1-2-4.4-2-7
			c0-2.6,0.6-4.9,1.9-7c1.3-2.1,3.1-3.7,5.4-4.9c2.3-1.2,4.9-1.7,7.8-1.7c2.8,0,5.4,0.6,7.6,1.7c2.2,1.1,4,2.8,5.3,4.8
			c1.3,2.1,1.9,4.5,1.9,7.2C414.3,177.1,414.3,177.7,414.2,178.5z M394,169.7c-1.5,1.2-2.4,2.7-2.8,4.7h16.6
			c-0.3-1.9-1.2-3.5-2.7-4.7c-1.5-1.2-3.4-1.8-5.6-1.8C397.4,167.9,395.5,168.5,394,169.7z"/>
		<path class="st0" d="M449.6,152.9v36.9H443v-3.4c-1.1,1.3-2.5,2.2-4.2,2.8c-1.7,0.6-3.5,0.9-5.5,0.9c-2.8,0-5.3-0.6-7.6-1.7
			c-2.2-1.1-4-2.7-5.3-4.8c-1.3-2.1-1.9-4.5-1.9-7.1s0.6-5.1,1.9-7.1c1.3-2.1,3-3.6,5.3-4.8c2.2-1.1,4.8-1.7,7.6-1.7
			c1.9,0,3.7,0.3,5.3,0.9c1.6,0.6,3,1.5,4.1,2.7v-13.6H449.6z M438.5,183.8c1.3-0.7,2.4-1.7,3.1-2.9c0.8-1.3,1.1-2.7,1.1-4.4
			c0-1.7-0.4-3.1-1.1-4.4c-0.8-1.3-1.8-2.2-3.1-2.9c-1.3-0.7-2.8-1-4.4-1c-1.6,0-3.1,0.3-4.4,1c-1.3,0.7-2.4,1.7-3.1,2.9
			c-0.8,1.3-1.1,2.7-1.1,4.4c0,1.7,0.4,3.1,1.1,4.4c0.8,1.3,1.8,2.2,3.1,2.9c1.3,0.7,2.8,1,4.4,1
			C435.8,184.9,437.2,184.5,438.5,183.8z"/>
		<path class="st0" d="M486.8,163.3v26.6h-6.5v-3.4c-1.1,1.2-2.5,2.1-4.1,2.8c-1.6,0.6-3.4,1-5.3,1c-3.9,0-7-1-9.2-3
			c-2.2-2-3.4-4.9-3.4-8.8v-15.2h6.8v14.3c0,2.4,0.6,4.2,1.8,5.4c1.2,1.2,2.9,1.8,5.1,1.8c2.4,0,4.4-0.7,5.8-2.1
			c1.4-1.4,2.2-3.4,2.2-5.9v-13.4H486.8z"/>
		<path class="st0" d="M501.1,188.4c-2.4-1.2-4.3-2.8-5.6-4.9c-1.4-2.1-2-4.4-2-7c0-2.6,0.7-5,2-7c1.4-2.1,3.2-3.7,5.6-4.8
			c2.4-1.2,5.1-1.7,8.2-1.7c2.9,0,5.4,0.5,7.6,1.6c2.2,1.1,3.8,2.6,4.9,4.6l-5.3,2.8c-0.8-1.2-1.9-2.1-3.1-2.8
			c-1.3-0.6-2.6-0.9-4.1-0.9c-2.6,0-4.7,0.8-6.4,2.3c-1.7,1.5-2.5,3.5-2.5,6c0,2.5,0.8,4.5,2.5,6c1.7,1.5,3.8,2.3,6.4,2.3
			c1.5,0,2.9-0.3,4.1-0.9c1.3-0.6,2.3-1.5,3.1-2.8l5.3,2.8c-1.1,2-2.8,3.5-5,4.6c-2.2,1.1-4.7,1.6-7.5,1.6
			C506.2,190.2,503.5,189.6,501.1,188.4z"/>
		<path class="st0" d="M548.7,165.8c2.3,1.9,3.4,4.7,3.4,8.5v15.6h-6.5v-3.2c-0.8,1.2-2,2-3.6,2.7c-1.6,0.6-3.4,0.9-5.6,0.9
			s-4.1-0.3-5.7-1c-1.6-0.7-2.9-1.6-3.8-2.8c-0.9-1.2-1.3-2.6-1.3-4.1c0-2.4,1-4.3,2.9-5.7c2-1.4,5-2.2,9.2-2.2h7.6v-0.4
			c0-1.9-0.6-3.3-1.8-4.3c-1.2-1-3-1.5-5.4-1.5c-1.6,0-3.3,0.2-4.8,0.7c-1.6,0.5-2.9,1.1-4,1.9l-2.7-4.5c1.5-1.1,3.4-1.9,5.5-2.4
			c2.2-0.6,4.4-0.8,6.8-0.8C543.1,163,546.4,163.9,548.7,165.8z M542.4,184.6c1.3-0.7,2.3-1.7,2.8-3.1v-3.1h-7.1
			c-3.9,0-5.9,1.2-5.9,3.5c0,1.1,0.5,2,1.5,2.7c1,0.7,2.4,1,4.1,1C539.6,185.7,541.1,185.3,542.4,184.6z"/>
		<path class="st0" d="M578.4,188.4c-0.8,0.6-1.8,1-2.9,1.3c-1.1,0.3-2.4,0.4-3.6,0.4c-3.2,0-5.7-0.8-7.4-2.3
			c-1.8-1.5-2.6-3.7-2.6-6.7v-12.8H557v-5h4.8v-6.1h6.8v6.1h7.8v5h-7.8v12.6c0,1.3,0.3,2.3,1,3c0.7,0.7,1.7,1,3,1
			c1.5,0,2.8-0.4,3.8-1.1L578.4,188.4z"/>
		<path class="st0" d="M610.5,178.5h-22.9c0.4,2,1.5,3.5,3.1,4.7c1.7,1.1,3.8,1.7,6.3,1.7c3.2,0,5.9-1,7.9-2.9l3.7,3.8
			c-1.3,1.4-3,2.5-5,3.2c-2,0.7-4.3,1.1-6.8,1.1c-3.2,0-6-0.6-8.5-1.7c-2.4-1.2-4.3-2.8-5.7-4.9c-1.3-2.1-2-4.4-2-7
			c0-2.6,0.6-4.9,1.9-7c1.3-2.1,3.1-3.7,5.4-4.9c2.3-1.2,4.9-1.7,7.8-1.7c2.8,0,5.4,0.6,7.6,1.7c2.2,1.1,4,2.8,5.3,4.8
			c1.3,2.1,1.9,4.5,1.9,7.2C610.6,177.1,610.5,177.7,610.5,178.5z M590.2,169.7c-1.5,1.2-2.4,2.7-2.8,4.7h16.6
			c-0.3-1.9-1.2-3.5-2.7-4.7c-1.5-1.2-3.4-1.8-5.6-1.8C593.6,167.9,591.7,168.5,590.2,169.7z"/>
	</g>
</g>
</svg>
